<svg width="275" height="301" viewBox="0 0 275 301" fill="none" xmlns="http://www.w3.org/2000/svg">
<path d="M107 85L5.97138 177.909C1.0829 184.908 -9.0199 213.498 17.9211 225.675C44.862 237.853 62.6416 213.253 64.6332 205.204L107 85Z" fill="#FFD600"/>
<path d="M202.209 85L138.845 239.442C137.029 249.793 140.322 287.427 175.659 288.731C210.995 290.034 218.029 253.369 216.176 243.176L202.209 85Z" fill="#FFD600"/>
<g filter="url(#filter0_d_50_232)">
<path fill-rule="evenodd" clip-rule="evenodd" d="M178.2 47H124.8L107 71.2436H116.856L129.695 53.7564H174.64L187.479 71.2436H196L178.2 47ZM87 84C87 79.0294 91.0294 75 96 75H207C211.971 75 216 79.0294 216 84V100C216 103.919 213.496 107.252 210 108.488V116C210 117.657 208.657 119 207 119H191C189.343 119 188 117.657 188 116V109H115V116C115 117.657 113.657 119 112 119H96C94.3431 119 93 117.657 93 116V108.488C89.5044 107.252 87 103.919 87 100V84ZM110 92.5C110 96.6421 106.642 100 102.5 100C98.3579 100 95 96.6421 95 92.5C95 88.3579 98.3579 85 102.5 85C106.642 85 110 88.3579 110 92.5ZM208 92.5C208 96.6421 204.642 100 200.5 100C196.358 100 193 96.6421 193 92.5C193 88.3579 196.358 85 200.5 85C204.642 85 208 88.3579 208 92.5Z" fill="#433B3B"/>
</g>
<path d="M208 32.9359L210.281 29.8185C211.444 30.6344 212.607 31.3117 213.77 31.8505C214.933 32.3894 216.114 32.7896 217.313 33.0513C218.53 33.313 219.764 33.4439 221.017 33.4439C222.842 33.4439 224.434 33.1822 225.794 32.6588C227.172 32.1353 228.246 31.4118 229.015 30.4881C229.784 29.5491 230.169 28.4715 230.169 27.2553C230.169 25.9314 229.731 24.8384 228.854 23.9763C227.995 23.0988 226.877 22.3521 225.499 21.7364C224.121 21.1206 222.654 20.5356 221.097 19.9814C219.791 19.5042 218.494 18.9962 217.206 18.4573C215.917 17.9185 214.746 17.2951 213.69 16.5869C212.652 15.8634 211.82 14.9936 211.194 13.9775C210.568 12.9615 210.254 11.7377 210.254 10.306C210.254 8.47402 210.791 6.8576 211.865 5.4567C212.938 4.05581 214.423 2.9628 216.32 2.17768C218.235 1.39256 220.435 1 222.922 1C224.604 1 226.295 1.19243 227.995 1.57729C229.695 1.94676 231.341 2.49326 232.933 3.21681L231.001 6.54201C229.749 5.91084 228.433 5.42591 227.056 5.08724C225.696 4.74856 224.354 4.57922 223.03 4.57922C221.455 4.57922 220.069 4.81013 218.87 5.27197C217.689 5.71841 216.758 6.34958 216.079 7.16549C215.417 7.966 215.085 8.90507 215.085 9.98268C215.085 11.1835 215.488 12.1918 216.293 13.0077C217.116 13.8236 218.172 14.5318 219.46 15.1321C220.766 15.7171 222.144 16.2867 223.593 16.8409C224.971 17.3643 226.331 17.9185 227.673 18.5035C229.033 19.0731 230.258 19.7505 231.35 20.5356C232.459 21.3053 233.345 22.229 234.007 23.3066C234.669 24.3842 235 25.6851 235 27.2091C235 29.1642 234.427 30.8807 233.282 32.3586C232.137 33.821 230.527 34.9602 228.451 35.7761C226.394 36.592 223.978 37 221.205 37C218.771 37 216.454 36.6613 214.253 35.984C212.053 35.3066 209.968 34.2906 208 32.9359Z" fill="#433B3B"/>
<path d="M198 36H192.756L183.179 21.7667H173.708V36H169V1H182.885C185.756 1 188.226 1.42 190.295 2.26C192.364 3.1 193.96 4.29778 195.084 5.85333C196.208 7.39333 196.769 9.23667 196.769 11.3833C196.769 13.8878 196.002 15.9878 194.469 17.6833C192.953 19.3789 190.821 20.5533 188.075 21.2067L198 36ZM173.708 18.1267H182.59C185.498 18.1267 187.78 17.5278 189.439 16.33C191.116 15.1322 191.954 13.4833 191.954 11.3833C191.954 9.28333 191.125 7.63444 189.466 6.43667C187.807 5.23889 185.515 4.64 182.59 4.64H173.708V18.1267Z" fill="#433B3B"/>
<path d="M115.505 36H109.84L131.5 1H136.5L158.124 36H152.495L146.764 26.55H121.236L115.505 36ZM123.416 22.91H144.584L134 5.43333L123.416 22.91Z" fill="#433B3B"/>
<path d="M104 32.5923C102.152 34.2812 99.9462 35.6047 97.3812 36.5628C94.8161 37.5209 92.0179 38 88.9865 38C85.9552 38 83.157 37.5291 80.5919 36.5872C78.0448 35.6453 75.8296 34.3218 73.9462 32.6167C72.0628 30.8953 70.6009 28.8816 69.5605 26.5756C68.5202 24.2534 68 21.7282 68 19C68 16.2556 68.5202 13.7303 69.5605 11.4244C70.6009 9.10214 72.0628 7.08846 73.9462 5.38333C75.8296 3.67821 78.0448 2.3547 80.5919 1.41282C83.157 0.47094 85.9552 0 88.9865 0C92 0 94.7892 0.47906 97.3543 1.43718C99.9193 2.37906 102.126 3.69444 103.973 5.38333L100.664 8.42821C99.2287 6.98291 97.5067 5.85427 95.4978 5.04231C93.4888 4.2141 91.2915 3.8 88.9058 3.8C86.5919 3.8 84.4574 4.18162 82.5022 4.94487C80.5471 5.69188 78.843 6.75556 77.3901 8.1359C75.9552 9.5 74.8341 11.1077 74.0269 12.959C73.2377 14.8103 72.843 16.8239 72.843 19C72.843 21.1923 73.2377 23.2141 74.0269 25.0654C74.8341 26.9004 75.9552 28.5081 77.3901 29.8885C78.843 31.2526 80.5471 32.3162 82.5022 33.0795C84.4574 33.8265 86.5919 34.2 88.9058 34.2C91.2915 34.2 93.4888 33.794 95.4978 32.9821C97.5067 32.1538 99.2287 31.0171 100.664 29.5718L104 32.5923Z" fill="#433B3B"/>
<defs>
<filter id="filter0_d_50_232" x="83" y="47" width="137" height="80" filterUnits="userSpaceOnUse" color-interpolation-filters="sRGB">
<feFlood flood-opacity="0" result="BackgroundImageFix"/>
<feColorMatrix in="SourceAlpha" type="matrix" values="0 0 0 0 0 0 0 0 0 0 0 0 0 0 0 0 0 0 127 0" result="hardAlpha"/>
<feOffset dy="4"/>
<feGaussianBlur stdDeviation="2"/>
<feComposite in2="hardAlpha" operator="out"/>
<feColorMatrix type="matrix" values="0 0 0 0 0 0 0 0 0 0 0 0 0 0 0 0 0 0 0.25 0"/>
<feBlend mode="normal" in2="BackgroundImageFix" result="effect1_dropShadow_50_232"/>
<feBlend mode="normal" in="SourceGraphic" in2="effect1_dropShadow_50_232" result="shape"/>
</filter>
</defs>
</svg>
