<svg width="200" height="127" viewBox="0 0 200 127" fill="none" xmlns="http://www.w3.org/2000/svg">
<g filter="url(#filter0_d_116_146)">
<path fill-rule="evenodd" clip-rule="evenodd" d="M155 75C159.971 75 164 79.0294 164 84V100C164 103.918 161.495 107.25 158 108.485V116C158 117.657 156.657 119 155 119H139C137.343 119 136 117.657 136 116V109H63V116C63 117.657 61.6569 119 60 119H44C42.3431 119 41 117.657 41 116V108.485C37.5048 107.25 35 103.918 35 100V84C35 79.0294 39.0294 75 44 75H155ZM50.5 85C46.3579 85 43 88.3579 43 92.5C43 96.6421 46.3579 100 50.5 100C54.6421 100 58 96.6421 58 92.5C58 88.3579 54.6421 85 50.5 85ZM148.5 85C144.358 85 141 88.3579 141 92.5C141 96.6421 144.358 100 148.5 100C152.642 100 156 96.6421 156 92.5C156 88.3579 152.642 85 148.5 85Z" fill="#433B3B"/>
<path d="M144 71.2432H135.479L122.64 53.7568H77.6953L64.8555 71.2432H55L72.7998 47H126.2L144 71.2432Z" fill="#433B3B"/>
</g>
<path d="M156 32.9359L158.281 29.8185C159.444 30.6344 160.607 31.3117 161.77 31.8505C162.933 32.3894 164.114 32.7896 165.313 33.0513C166.53 33.313 167.764 33.4439 169.017 33.4439C170.842 33.4439 172.434 33.1822 173.794 32.6588C175.172 32.1353 176.246 31.4118 177.015 30.4881C177.784 29.5491 178.169 28.4715 178.169 27.2553C178.169 25.9314 177.731 24.8384 176.854 23.9763C175.995 23.0988 174.877 22.3521 173.499 21.7364C172.121 21.1206 170.654 20.5356 169.097 19.9814C167.791 19.5042 166.494 18.9962 165.206 18.4573C163.917 17.9185 162.746 17.2951 161.69 16.5869C160.652 15.8634 159.82 14.9936 159.194 13.9775C158.568 12.9615 158.254 11.7377 158.254 10.306C158.254 8.47402 158.791 6.8576 159.865 5.4567C160.938 4.05581 162.423 2.9628 164.32 2.17768C166.235 1.39256 168.435 1 170.922 1C172.604 1 174.295 1.19243 175.995 1.57729C177.695 1.94676 179.341 2.49326 180.933 3.21681L179.001 6.54201C177.749 5.91084 176.433 5.42591 175.056 5.08724C173.696 4.74856 172.354 4.57922 171.03 4.57922C169.455 4.57922 168.069 4.81013 166.87 5.27197C165.689 5.71841 164.758 6.34958 164.079 7.16549C163.417 7.966 163.085 8.90507 163.085 9.98268C163.085 11.1835 163.488 12.1918 164.293 13.0077C165.116 13.8236 166.172 14.5318 167.46 15.1321C168.766 15.7171 170.144 16.2867 171.593 16.8409C172.971 17.3643 174.331 17.9185 175.673 18.5035C177.033 19.0731 178.258 19.7505 179.35 20.5356C180.459 21.3053 181.345 22.229 182.007 23.3066C182.669 24.3842 183 25.6851 183 27.2091C183 29.1642 182.427 30.8807 181.282 32.3586C180.137 33.821 178.527 34.9602 176.451 35.7761C174.394 36.592 171.978 37 169.205 37C166.771 37 164.454 36.6613 162.253 35.984C160.053 35.3066 157.968 34.2906 156 32.9359Z" fill="#433B3B"/>
<path d="M146 36H140.756L131.179 21.7667H121.708V36H117V1H130.885C133.756 1 136.226 1.42 138.295 2.26C140.364 3.1 141.96 4.29778 143.084 5.85333C144.208 7.39333 144.769 9.23667 144.769 11.3833C144.769 13.8878 144.002 15.9878 142.469 17.6833C140.953 19.3789 138.821 20.5533 136.075 21.2067L146 36ZM121.708 18.1267H130.59C133.498 18.1267 135.78 17.5278 137.439 16.33C139.116 15.1322 139.954 13.4833 139.954 11.3833C139.954 9.28333 139.125 7.63444 137.466 6.43667C135.807 5.23889 133.515 4.64 130.59 4.64H121.708V18.1267Z" fill="#433B3B"/>
<path d="M63.5049 36H57.8404L79.5 1H84.5L106.124 36H100.495L94.7637 26.55H69.2363L63.5049 36ZM71.4163 22.91H92.5837L82 5.43333L71.4163 22.91Z" fill="#433B3B"/>
<path d="M52 32.5923C50.1525 34.2812 47.9462 35.6047 45.3812 36.5628C42.8161 37.5209 40.0179 38 36.9865 38C33.9552 38 31.157 37.5291 28.5919 36.5872C26.0448 35.6453 23.8296 34.3218 21.9462 32.6167C20.0628 30.8953 18.6009 28.8816 17.5605 26.5756C16.5202 24.2534 16 21.7282 16 19C16 16.2556 16.5202 13.7303 17.5605 11.4244C18.6009 9.10214 20.0628 7.08846 21.9462 5.38333C23.8296 3.67821 26.0448 2.3547 28.5919 1.41282C31.157 0.47094 33.9552 0 36.9865 0C40 0 42.7892 0.47906 45.3543 1.43718C47.9193 2.37906 50.1256 3.69444 51.9731 5.38333L48.6637 8.42821C47.2287 6.98291 45.5067 5.85427 43.4978 5.04231C41.4888 4.2141 39.2915 3.8 36.9058 3.8C34.5919 3.8 32.4574 4.18162 30.5022 4.94487C28.5471 5.69188 26.843 6.75556 25.3901 8.1359C23.9552 9.5 22.8341 11.1077 22.0269 12.959C21.2377 14.8103 20.843 16.8239 20.843 19C20.843 21.1923 21.2377 23.2141 22.0269 25.0654C22.8341 26.9004 23.9552 28.5081 25.3901 29.8885C26.843 31.2526 28.5471 32.3162 30.5022 33.0795C32.4574 33.8265 34.5919 34.2 36.9058 34.2C39.2915 34.2 41.4888 33.794 43.4978 32.9821C45.5067 32.1538 47.2287 31.0171 48.6637 29.5718L52 32.5923Z" fill="#433B3B"/>
<defs>
<filter id="filter0_d_116_146" x="31" y="47" width="137" height="80" filterUnits="userSpaceOnUse" color-interpolation-filters="sRGB">
<feFlood flood-opacity="0" result="BackgroundImageFix"/>
<feColorMatrix in="SourceAlpha" type="matrix" values="0 0 0 0 0 0 0 0 0 0 0 0 0 0 0 0 0 0 127 0" result="hardAlpha"/>
<feOffset dy="4"/>
<feGaussianBlur stdDeviation="2"/>
<feComposite in2="hardAlpha" operator="out"/>
<feColorMatrix type="matrix" values="0 0 0 0 0 0 0 0 0 0 0 0 0 0 0 0 0 0 0.25 0"/>
<feBlend mode="normal" in2="BackgroundImageFix" result="effect1_dropShadow_116_146"/>
<feBlend mode="normal" in="SourceGraphic" in2="effect1_dropShadow_116_146" result="shape"/>
</filter>
</defs>
</svg>
