<svg width="55" height="55" viewBox="0 0 55 55" fill="none" xmlns="http://www.w3.org/2000/svg">
<circle cx="27.5" cy="27.5" r="27.5" fill="#FFD600"/>
<path d="M36.9742 13.4839H18.0258L11.7097 22.0864H15.2069L19.7628 15.8813H35.711L40.2669 22.0864H43.2903L36.9742 13.4839Z" fill="#433B3B"/>
<path fill-rule="evenodd" clip-rule="evenodd" d="M4.61292 26.6129C4.61292 24.8491 6.04272 23.4193 7.80646 23.4193H47.1936C48.9573 23.4193 50.3871 24.8491 50.3871 26.6129V32.2903C50.3871 33.6808 49.4984 34.8637 48.2581 35.3021V37.9677C48.2581 38.5556 47.7815 39.0322 47.1936 39.0322H41.5161C40.9282 39.0322 40.4516 38.5556 40.4516 37.9677V35.4839H14.5484V37.9677C14.5484 38.5556 14.0718 39.0322 13.4839 39.0322H7.80646C7.21855 39.0322 6.74195 38.5556 6.74195 37.9677V35.3021C5.50158 34.8637 4.61292 33.6808 4.61292 32.2903V26.6129ZM12.7742 29.629C12.7742 31.0988 11.5827 32.2903 10.1129 32.2903C8.64313 32.2903 7.45162 31.0988 7.45162 29.629C7.45162 28.1592 8.64313 26.9677 10.1129 26.9677C11.5827 26.9677 12.7742 28.1592 12.7742 29.629ZM47.5484 29.629C47.5484 31.0988 46.3569 32.2903 44.8871 32.2903C43.4173 32.2903 42.2258 31.0988 42.2258 29.629C42.2258 28.1592 43.4173 26.9677 44.8871 26.9677C46.3569 26.9677 47.5484 28.1592 47.5484 29.629Z" fill="#433B3B"/>
</svg>
