<svg width="20" height="19" viewBox="0 0 20 19" fill="none" xmlns="http://www.w3.org/2000/svg">
<g clip-path="url(#clip0_50_252)">
<path d="M10.0033 4.62967C7.16333 4.62967 4.87667 6.80517 4.87667 9.5C4.87667 12.1948 7.16667 14.3703 10.0033 14.3703C12.84 14.3703 15.1333 12.198 15.1333 9.5C15.1333 6.802 12.8433 4.62967 10.0033 4.62967ZM10.0033 12.6667C8.17 12.6667 6.67 11.2448 6.67 9.5C6.67 7.75517 8.16667 6.33333 10.0033 6.33333C11.84 6.33333 13.3367 7.75517 13.3367 9.5C13.3367 11.2448 11.84 12.6667 10.0033 12.6667ZM16.5367 4.43017C16.5367 5.06033 16 5.567 15.34 5.567C14.6767 5.567 14.1433 5.05717 14.1433 4.43017C14.1433 3.80317 14.68 3.29333 15.34 3.29333C16 3.29333 16.5367 3.80317 16.5367 4.43017ZM19.9333 5.58283C19.8567 4.05967 19.49 2.71383 18.3167 1.60233C17.15 0.490833 15.73 0.1425 14.1267 0.0665C12.4767 -0.0221667 7.52667 -0.0221667 5.87333 0.0665C4.28 0.139333 2.86 0.487667 1.68667 1.596C0.513333 2.70433 0.15 4.0565 0.07 5.57967C-0.0233333 7.14717 -0.0233333 11.8497 0.07 13.4203C0.146667 14.9435 0.513333 16.2893 1.68667 17.4008C2.86 18.5123 4.27667 18.8607 5.87667 18.9367C7.52667 19.0253 12.4767 19.0253 14.13 18.9367C15.7333 18.8638 17.15 18.5155 18.32 17.4008C19.49 16.2893 19.8567 14.9403 19.9367 13.4203C20.0267 11.8497 20.0267 7.15033 19.9333 5.58283ZM17.8 15.1018C17.4533 15.9315 16.7767 16.5743 15.9 16.9068C14.5833 17.404 11.46 17.2868 10.0033 17.2868C8.54667 17.2868 5.42 17.3977 4.10667 16.9068C3.23333 16.5775 2.55667 15.9347 2.20667 15.1018C1.68333 13.851 1.80667 10.8838 1.80667 9.5C1.80667 8.11617 1.69 5.14583 2.20667 3.89817C2.55333 3.0685 3.23 2.42567 4.10667 2.09317C5.42333 1.596 8.54667 1.71317 10.0033 1.71317C11.46 1.71317 14.5867 1.60233 15.9 2.09317C16.7733 2.4225 17.45 3.06533 17.8 3.89817C18.3233 5.149 18.2 8.11617 18.2 9.5C18.2 10.8838 18.3233 13.8542 17.8 15.1018Z" fill="#433B3B"/>
</g>
<defs>
<clipPath id="clip0_50_252">
<rect width="20" height="19" fill="white"/>
</clipPath>
</defs>
</svg>
